<?xml version="1.0" encoding="UTF-8"?>
<svg id="Capa_1" data-name="Capa 1" xmlns="http://www.w3.org/2000/svg" xmlns:xlink="http://www.w3.org/1999/xlink" viewBox="0 0 842 901">
  <defs>
    <style>
      .cls-1 {
        fill: #63d838;
        filter: url(#outer-glow-1);
        stroke-width: 0px;
      }
    </style>
    <filter id="outer-glow-1" filterUnits="userSpaceOnUse">
      <feOffset dx="0" dy="0"/>
      <feGaussianBlur result="blur" stdDeviation="10"/>
      <feFlood flood-color="#4bff00" flood-opacity=".89"/>
      <feComposite in2="blur" operator="in"/>
      <feComposite in="SourceGraphic"/>
    </filter>
  </defs>
  <path class="cls-1" d="M147.61,350.76c-2.13,50.82,6.55,99.53,29.48,145.3,2.9,5.78,6.72,11.1,10.09,16.65,4.36,7.19,3.4,10.4-4.11,13.85-16.5,7.56-17.03,7.23-17.58-10.92-.68-22.51-1.48-23.34-24.11-21.93-6.18.38-12.32,1.57-18.46,2.51-10.4,1.58-11.86.11-9.4-9.92,3.1-12.62,6.02-25.29,9.52-37.8,1.74-6.21.36-9.31-6.06-11.21-15.17-4.49-30.16-9.56-45.2-14.5-8.22-2.7-9.18-4.79-3.35-10.91,11.67-12.24,23.58-24.29,36.15-35.59,5.67-5.09,6.61-8.65,1.89-14.7-15.97-20.47-37.27-31.44-62.3-36.2-3.98-.76-7.83-2.13-13.76-3.77,3.45-3.06,5.07-4.81,6.97-6.16,18.44-13.08,36.91-26.1,55.4-39.11,10.18-7.17,10.52-7.98,4.55-19.15-11.07-20.7-26.52-37.87-43.66-53.67-3.87-3.57-7.38-7.53-11.87-12.15,2.82-1.01,4.23-1.88,5.7-2,24.49-1.97,48.99-3.82,73.48-5.77,6.48-.52,12.92-1.55,19.4-1.9,6.19-.33,7.85-3.42,6.49-8.95-5.6-22.75-10.18-45.84-22.72-66.24-1.19-1.94-1.15-4.65-1.68-7,2.36-.33,4.87-1.37,7.05-.89,22.45,4.9,44.46,11.2,63.97,23.84,6.37,4.13,9.23,2.49,11.98-4,8.57-20.2,14.38-40.95,15.72-62.98.47-7.71,2.71-15.31,4.45-24.62,3.36,2.79,5.97,4.35,7.8,6.56,16.35,19.78,32.73,39.55,48.75,59.61,7.26,9.09,9.33,9.53,16.46.48,19.86-25.23,46.11-42.16,73.93-57.04,1.14-.61,2.64-.54,5.2-1.01.3,4.56.98,8.65.78,12.7-1.32,27.27.79,54.22,6.8,80.87,2.25,10,3.74,11.04,13.15,7.66,21.01-7.54,41.93-15.29,62.95-22.81,2.14-.77,4.63-.53,6.96-.76-.65,2.49-.78,5.27-2.02,7.41-13.66,23.43-27.52,46.75-41.26,70.14-1.11,1.88-1.72,4.06-3.36,8.04,27.54,4.4,54.09,8.65,82.56,13.2-2.51,3.42-3.99,6.19-6.15,8.24-16.75,15.98-33.61,31.84-50.49,47.68-2.23,2.09-4.78,3.83-8.15,6.5,24.28,10.31,46.43,19.71,70.61,29.98-4.77,4.03-7.26,6.54-10.13,8.49-22.43,15.27-47.53,24.69-73.05,33.22-2.67.89-4.93,3.01-7.38,4.56,1.59,2.17,2.74,4.99,4.83,6.41,11.66,7.9,23.55,15.46,35.36,23.13,3.91,2.54,7.82,5.07,13.98,9.07-9.11,4.87-16,9.06-23.3,12.31-7.72,3.43-15.74,6.33-23.83,8.79-7.47,2.27-9.2,6.67-6.67,13.5,2.65,7.15,5.43,14.26,8.02,21.43,2.8,7.76,1.58,9.43-6.44,10.54-7.54,1.04-15.07,2.31-22.53,3.89-6.25,1.32-7.98,5.09-4.11,10.47,4.12,5.72,8.38,11.37,12.89,16.78,3.65,4.38,3.9,7.99-2.25,9.13-19.99,3.72-35.36,13.64-47.94,29.93-5.05,6.54-14.67,10.62-23.02,13.28-10.1,3.22-7.68,10.29-7.95,16.98-.25,6.17,3.12,8.75,8.93,10.27,17.48,4.55,34.79,9.7,52.19,14.57,3.8,1.06,7.65,2.65,11.5,2.74,13.12.29,18.91,8.21,22.05,19.6,15.38,55.82,30.84,111.61,46.28,167.42.68,2.45,1.55,4.85,2.13,7.33,1.41,6.08,3.96,10.55,11.36,9.86,7.54-.7,14.22-1.14,15.75-11.32,3.62-24.21,15.78-45.18,27.33-66.22,3.04-5.54,8.43-6.57,14.72-3.98,29.39,12.12,60.15,17.29,91.85,17.21,1.96,0,3.92-.67,6.07-2.04-78.42-4.41-142.7-30.52-172.41-111.41-.85.8-1.71,1.6-2.56,2.4,2.37,6.79,4.61,13.64,7.16,20.36,2.03,5.33.44,7.77-5.19,7.01-26.98-3.64-35.8-30.94-26.85-47.9,1.53-2.9,3.62-5.87,6.23-7.74,6.53-4.7,6.52-9.68,2.46-15.97-3.82-5.92-6.69-12.47-10.59-18.34-9.31-13.98-9.62-28.45-3.62-43.65,6.22-15.77,12.02-31.48,11.18-49.1-.3-6.33,2.43-13.56,5.79-19.19,18.51-31.07,40.44-59.74,70.55-80.21,35.87-24.38,76.98-31.15,119.72-29.98,24.52.67,47.47,6.46,68.37,19.65,3.09,1.95,6.35,4.12,9.82,4.91,19.39,4.43,31.87,18.19,42.32,33.21,13.81,19.85,26.4,40.67,38.03,61.88,4.27,7.78,4.78,17.82,6.1,26.96,1,6.95-.71,14.43,1.02,21.1,6.74,25.87,2.18,50.96-3.25,76.21-.71,3.29.26,8.02,2.3,10.63,13.62,17.38,9.76,41.47-9.8,51.21-12.62,6.28-21.65,15.35-30.45,26.03-9.78,11.88-21.75,22.02-33.18,32.45-7.61,6.94-7.46,7.75-2.48,16.88,7.26,13.32,13.54,27.2,19.89,41,2.03,4.41,1.11,7.86-3.63,11.36-12.73,9.4-24.75,19.75-36.96,29.85-4.3,3.55-8.42,4.53-14,2.44-20.46-7.65-39.15,5.57-38.03,27.48.28,5.43,4.04,11.77,8.13,15.65,5.12,4.84,6.56,9.4,3.02,14.73-2.08,3.13-6.15,4.95-9.32,7.36-1.52-3.27-4.22-6.49-4.36-9.81-.53-12.98-.14-26-.3-39-.12-9.37-2.41-11.92-11.34-12-18.09-.16-36.19-.15-54.28.1-10.39.15-13.32,3.38-13.52,14.05-.21,11.02.1,22.07-.47,33.06-.14,2.68-2.31,6.82-4.46,7.54-8.68,2.89-17.75,4.62-26.63,6.94-10.17,2.67-17.19-1.84-23.71-9.15-14.47-16.22-29.21-32.2-44.22-47.91-2.41-2.52-6.77-4.34-10.29-4.45-15.82-.48-31.66-.4-47.49-.19-10.63.14-12.75,2.38-12.88,13.19-.18,15.26.17,30.54-.25,45.79-.08,3.02-2.65,5.98-4.07,8.97-3.22-1.72-7.36-2.7-9.46-5.32-4.39-5.47-7.6-11.87-11.49-17.76-18.05-27.31-45.67-38.35-76.09-44.56-29.84-6.09-59.08-3.73-87.58,6.85-6.48,2.41-11.76,1.55-17.58-1.92-30.99-18.41-58.08-41.8-84.5-66.01-2.54-2.33-4.63-7.72-3.76-10.79,8.98-31.78,18.66-63.36,28.04-95.03,2.97-10.02,5.77-20.09,8.37-30.2,1.79-6.99,6.09-11.13,12.81-13.34,25.22-8.3,50.41-16.71,75.61-25.08,2.41-.8,5.67-.91,7.04-2.57,2.86-3.46,6.41-7.73,6.45-11.7.03-3.29-3.9-7.75-7.24-9.73-12.02-7.13-24.57-13.36-36.81-20.12-1.78-.99-3.13-2.93-4.41-4.63-24.88-33.37-35.75-72.02-42.05-112.34-2.87-18.39-5.4-36.83-8.05-55.09ZM592.09,487.91c-2.42,19.47-15.65,26-30.54,28.85-18.47,3.54-37.24,5.7-55.97,7.53-11.35,1.11-12.98,2.06-12.79,13.67.29,17.91,9.33,30.88,23.08,41.19,23.18,17.38,52.36,17.81,75.61,1.19,20.79-14.86,28.49-40.72,19.76-67.27-3.2-9.74-8.52-18.12-19.14-25.18ZM661.34,487.73c-3.67,4.54-5.78,7.11-7.84,9.71-21.56,27.2-15.38,62.12,14.74,82.08,20.88,13.83,42.61,13.26,64.4,2.45,19.03-9.43,29.42-24.93,30.61-46.32.6-10.82-.93-12.4-11.72-12.15-21.91.5-43.38-2.09-64.33-8.74-12.25-3.89-21.9-10.48-25.87-27.03ZM175.43,301.29c.4,2.73.9,6.64,1.55,10.54,1.09,6.5,4.79,9.39,11.41,7.79,22.42-5.41,44.83-4.8,67.21.14,4.97,1.1,8.34.18,9.66-5.15,4.5-18.11,1.66-34.73-12.62-47.34-13.8-12.19-30.27-17.06-47.97-9.2-17.87,7.93-28.65,21.6-29.24,43.23ZM290.9,298.88c.84,5.16-2.29,12.56,7.68,13.6,24.35,2.55,48.66,5.4,72.95,8.47,5.35.68,7.9-1.33,9.53-5.92,3.54-9.94.44-19.95-8.22-26.01-17.9-12.52-37.96-16.77-59.44-15.4-17.16,1.1-22.89,7.5-22.5,25.26ZM404.57,792.23c.74-.81,1.47-1.61,2.21-2.42-1.77-1.81-3.45-3.72-5.32-5.41-8.35-7.56-16.7-15.12-25.15-22.57-5.89-5.19-6.4-9.58.29-14.96,8.12-6.53,15.35-14.15,23.21-21.02,7.75-6.78,10.02-14.93,6.4-24.38-15.19-39.6-32.07-78.37-57.04-113.04-1.51-2.09-3.26-4.01-4.91-6-.81.52-1.61,1.05-2.42,1.57,2.68,4.67,5.62,9.2,8,14.02,16.49,33.36,33.15,66.65,49.13,100.26,5.61,11.8,3.52,17.01-6.22,26.1-8.46,7.89-16.61,16.12-25.09,23.99-5.12,4.75-5.07,8.75.3,13.29,10.13,8.56,20,17.43,30.06,26.08,1.99,1.71,4.35,3,6.55,4.48Z"/>
</svg>